# xmcd
#
# Track frame offsets:
#	150
#	29151
#	65031
#	114412
#	147504
#	170992
#	224398
#	261115
#	311172
#
# Disc length: 4472 seconds
#
# Revision: 1
# Processed by: cddbd v1.5.2PL0 Copyright (c) Steve Scherf et al.
# Submitted via: audiograbber 1.83.01
#
DISCID=97117609
DTITLE=Stacy Mitchhart - Live and Talking Sh**
DYEAR=2003
DGENRE=Blues
TTITLE0=Hole in the Wall
TTITLE1=Real Mother For Ya
TTITLE2=Mother-in-Law
TTITLE3=Hoochie Mama
TTITLE4=Lady in the Street
TTITLE5=It Still Wasn't Me (Draws)
TTITLE6=Strokin
TTITLE7=My First Girlfriend Sue
TTITLE8=The Monkey Song
EXTD=The Blues Doctor
EXTT0=
EXTT1=
EXTT2=
EXTT3=
EXTT4=
EXTT5=
EXTT6=
EXTT7=
EXTT8=
PLAYORDER=
